<svg width="40" height="40" viewBox="0 0 40 40" fill="none" xmlns="http://www.w3.org/2000/svg">
<g id="entypo-social:twitter-with-circle" clip-path="url(#clip0_237_6411)">
<path id="Vector" d="M19.9998 0.800781C9.39581 0.800781 0.799805 9.39678 0.799805 20.0008C0.799805 30.6048 9.39581 39.2008 19.9998 39.2008C30.6038 39.2008 39.1998 30.6048 39.1998 20.0008C39.1998 9.39678 30.6038 0.800781 19.9998 0.800781ZM27.8098 16.5288C27.8178 16.6928 27.8198 16.8568 27.8198 17.0168C27.8198 22.0168 24.0178 27.7788 17.0618 27.7788C15.0064 27.7822 12.9937 27.1919 11.2658 26.0788C11.5598 26.1148 11.8618 26.1288 12.1678 26.1288C13.9398 26.1288 15.5698 25.5268 16.8638 24.5108C16.0752 24.4953 15.3111 24.2342 14.678 23.7638C14.0449 23.2935 13.5743 22.6373 13.3318 21.8868C13.8981 21.9945 14.4815 21.9719 15.0378 21.8208C14.1819 21.6477 13.4122 21.1839 12.8592 20.5081C12.3062 19.8323 12.004 18.986 12.0038 18.1128V18.0668C12.5138 18.3488 13.0978 18.5208 13.7178 18.5408C12.9154 18.0066 12.3474 17.1861 12.1299 16.247C11.9124 15.308 12.0619 14.3213 12.5478 13.4888C13.4977 14.6568 14.6823 15.6123 16.0249 16.2934C17.3676 16.9745 18.8383 17.3661 20.3418 17.4428C20.1507 16.6314 20.2329 15.7796 20.5758 15.0198C20.9187 14.26 21.503 13.6348 22.2379 13.2413C22.9728 12.8479 23.8171 12.7082 24.6396 12.8441C25.462 12.98 26.2165 13.3838 26.7858 13.9928C27.6321 13.8253 28.4438 13.5149 29.1858 13.0748C28.9037 13.951 28.3132 14.6951 27.5238 15.1688C28.2735 15.0785 29.0055 14.8769 29.6958 14.5708C29.1888 15.3306 28.5501 15.9937 27.8098 16.5288Z" fill="white"/>
</g>
<defs>
<clipPath id="clip0_237_6411">
<rect width="40" height="40" fill="white"/>
</clipPath>
</defs>
</svg>
