<svg width="40" height="40" viewBox="0 0 40 40" fill="none" xmlns="http://www.w3.org/2000/svg">
<g id="entypo-social:linkedin-with-circle" clip-path="url(#clip0_237_6409)">
<path id="Vector" d="M19.9998 0.800781C9.39581 0.800781 0.799805 9.39678 0.799805 20.0008C0.799805 30.6048 9.39581 39.2008 19.9998 39.2008C30.6038 39.2008 39.1998 30.6048 39.1998 20.0008C39.1998 9.39678 30.6038 0.800781 19.9998 0.800781ZM15.2998 27.9588H11.4118V15.4468H15.2998V27.9588ZM13.3318 13.9108C12.1038 13.9108 11.3098 13.0408 11.3098 11.9648C11.3098 10.8668 12.1278 10.0228 13.3818 10.0228C14.6358 10.0228 15.4038 10.8668 15.4278 11.9648C15.4278 13.0408 14.6358 13.9108 13.3318 13.9108ZM29.4998 27.9588H25.6118V21.0248C25.6118 19.4108 25.0478 18.3148 23.6418 18.3148C22.5678 18.3148 21.9298 19.0568 21.6478 19.7708C21.5438 20.0248 21.5178 20.3848 21.5178 20.7428V27.9568H17.6278V19.4368C17.6278 17.8748 17.5778 16.5688 17.5258 15.4448H20.9038L21.0818 17.1828H21.1598C21.6718 16.3668 22.9258 15.1628 25.0238 15.1628C27.5818 15.1628 29.4998 16.8768 29.4998 20.5608V27.9588Z" fill="white"/>
</g>
<defs>
<clipPath id="clip0_237_6409">
<rect width="40" height="40" fill="white"/>
</clipPath>
</defs>
</svg>
