<svg width="20" height="21" viewBox="0 0 20 21" fill="none" xmlns="http://www.w3.org/2000/svg">
<g id="Facebook 1" clip-path="url(#clip0_179_12721)">
<path id="Vector" d="M20 10.5C20 4.97658 15.5234 0.5 10 0.5C4.47658 0.5 0 4.97658 0 10.5C0 15.4922 3.65625 19.6289 8.4375 20.3789V13.3906H5.89842V10.5H8.4375V8.29688C8.4375 5.791 9.92971 4.40625 12.2148 4.40625C13.3086 4.40625 14.4531 4.60156 14.4531 4.60156V7.0625H13.1914C11.9492 7.0625 11.5625 7.834 11.5625 8.625V10.5H14.3359L13.8926 13.3906H11.5625V20.3789C16.3438 19.6289 20 15.4922 20 10.5Z" fill="#1877F2"/>
<path id="Vector_2" d="M13.8926 13.3906L14.3359 10.5H11.5625V8.625C11.5625 7.834 11.9492 7.0625 13.1914 7.0625H14.4531V4.60156C14.4531 4.60156 13.3086 4.40625 12.2149 4.40625C9.92973 4.40625 8.43752 5.791 8.43752 8.29687V10.5H5.89844V13.3906H8.43752V20.3789C8.94727 20.459 9.46877 20.5 10 20.5C10.5313 20.5 11.0528 20.459 11.5625 20.3789V13.3906H13.8926Z" fill="white"/>
</g>
<defs>
<clipPath id="clip0_179_12721">
<rect width="20" height="20" fill="white" transform="translate(0 0.5)"/>
</clipPath>
</defs>
</svg>
