<svg width="96" height="96" viewBox="0 0 96 96" fill="none" xmlns="http://www.w3.org/2000/svg">
<g id="Group 6">
<path id="Vector" opacity="0.4" d="M96 57.5984V71.9984C96 79.9664 89.568 86.3984 81.6 86.3984H76.8C76.8 81.1184 72.48 76.7984 67.2 76.7984C61.92 76.7984 57.6 81.1184 57.6 86.3984H38.4C38.4 81.1184 34.08 76.7984 28.8 76.7984C23.52 76.7984 19.2 81.1184 19.2 86.3984H14.4C6.432 86.3984 0 79.9664 0 71.9984V57.5984H52.8C58.08 57.5984 62.4 53.2784 62.4 47.9984V14.3984H71.232C74.688 14.3984 77.856 16.2704 79.584 19.2464L87.792 33.5984H81.6C78.96 33.5984 76.8 35.7584 76.8 38.3984V52.7984C76.8 55.4384 78.96 57.5984 81.6 57.5984H96Z" fill="#3470AB"/>
<path id="Vector_2" d="M28.8 96C31.3461 96 33.7879 94.9886 35.5882 93.1882C37.3886 91.3879 38.4 88.9461 38.4 86.4C38.4 83.8539 37.3886 81.4121 35.5882 79.6118C33.7879 77.8114 31.3461 76.8 28.8 76.8C26.2539 76.8 23.8121 77.8114 22.0118 79.6118C20.2114 81.4121 19.2 83.8539 19.2 86.4C19.2 88.9461 20.2114 91.3879 22.0118 93.1882C23.8121 94.9886 26.2539 96 28.8 96ZM67.2 96C69.7461 96 72.1879 94.9886 73.9882 93.1882C75.7886 91.3879 76.8 88.9461 76.8 86.4C76.8 83.8539 75.7886 81.4121 73.9882 79.6118C72.1879 77.8114 69.7461 76.8 67.2 76.8C64.6539 76.8 62.2121 77.8114 60.4118 79.6118C58.6114 81.4121 57.6 83.8539 57.6 86.4C57.6 88.9461 58.6114 91.3879 60.4118 93.1882C62.2121 94.9886 64.6539 96 67.2 96ZM96 50.544V57.6H81.6C78.96 57.6 76.8 55.44 76.8 52.8V38.4C76.8 35.76 78.96 33.6 81.6 33.6H87.792L94.752 45.792C95.568 47.232 96 48.864 96 50.544ZM57.6 0H19.2C9.84 0 2.064 6.72 0.384 15.6H24C25.968 15.6 27.6 17.232 27.6 19.2C27.6 21.168 25.968 22.8 24 22.8H0V30H14.4C16.368 30 18 31.632 18 33.6C18 35.568 16.368 37.2 14.4 37.2H0V44.4H4.8C6.768 44.4 8.4 46.032 8.4 48C8.4 49.968 6.768 51.6 4.8 51.6H0V57.6H52.8C58.08 57.6 62.4 53.28 62.4 48V4.8C62.4 2.16 60.24 0 57.6 0Z" fill="#3470AB"/>
</g>
</svg>
