<svg width="13" height="15" viewBox="0 0 13 15" fill="none" xmlns="http://www.w3.org/2000/svg">
<g id="Group 1">
<path id="Vector" d="M10.7778 7.50174V3.83507C10.7778 2.48451 10.7778 1.39062 8.33333 1.39062H4.66667C2.22222 1.39062 2.22222 2.48451 2.22222 3.83507V7.50174M3.44444 7.50174C1 7.50174 1 8.59562 1 9.94618V10.5573C1 12.244 1 13.6128 4.05556 13.6128H8.94444C11.3889 13.6128 12 12.244 12 10.5573V9.94618C12 8.59562 12 7.50174 9.55556 7.50174C8.94444 7.50174 8.77333 7.63007 8.45556 7.8684L7.83222 8.5284C7.66085 8.71069 7.45397 8.85595 7.22432 8.95525C6.99468 9.05455 6.74714 9.10577 6.49694 9.10577C6.24675 9.10577 5.99921 9.05455 5.76956 8.95525C5.53992 8.85595 5.33304 8.71069 5.16167 8.5284L4.54444 7.8684C4.22667 7.63007 4.05556 7.50174 3.44444 7.50174Z" stroke="#5B5B5B" stroke-width="1.5" stroke-miterlimit="10" stroke-linecap="round" stroke-linejoin="round"/>
<path id="Vector_2" d="M5.61367 5.8099H7.64867M5.10645 3.97656H8.162" stroke="#5B5B5B" stroke-width="1.5" stroke-linecap="round" stroke-linejoin="round"/>
</g>
</svg>
