<svg width="96" height="96" viewBox="0 0 96 96" fill="none" xmlns="http://www.w3.org/2000/svg">
<g id="Group">
<path id="Vector" d="M79.9761 69.4613L60.046 49.0862L76.2225 32.5486C81.4748 33.7954 87.2141 32.3649 91.315 28.1731C95.8026 23.5894 97.0335 16.9976 95.1487 11.2326L87.5327 19.0146C84.8384 21.7773 80.3908 21.6912 77.5857 18.8234C74.7919 15.9631 74.7044 11.4163 77.3947 8.65845L85.0067 0.876477C79.3796 -1.0627 72.9351 0.20391 68.4401 4.7958C64.3473 8.97596 62.9527 14.8427 64.1756 20.2211L47.9991 36.7547L31.83 20.2246C33.0495 14.8509 31.6429 8.98347 27.5541 4.79512C23.0705 0.207324 16.6266 -1.05519 10.9875 0.871697L18.5996 8.65777C21.2979 11.4122 21.2177 15.9631 18.4085 18.8269C15.6107 21.6871 11.1712 21.7725 8.46553 19.0221L0.852824 11.2367C-1.03599 16.9935 0.198951 23.5901 4.69458 28.1772C8.77944 32.3656 14.518 33.7872 19.7831 32.5445L35.9516 49.0698L16.0255 69.4408C12.3988 69.184 8.69262 70.4145 5.93086 73.2543C0.837463 78.4532 0.837463 86.8866 5.93086 92.0937C11.0082 97.2885 19.2614 97.2885 24.3468 92.0937C27.1166 89.262 28.3161 85.469 28.085 81.7614L47.9991 61.3945L67.9292 81.7696C67.6821 85.4772 68.8896 89.2702 71.6594 92.0977C76.7408 97.3008 84.998 97.3008 90.0834 92.0977C95.1688 86.8988 95.1688 78.4655 90.0834 73.2625C87.313 70.4315 83.6028 69.2011 79.9761 69.4613ZM16.9051 89.4416L10.2775 87.6329L8.51228 80.8573L13.3545 75.8988L19.9821 77.7116L21.7554 84.4831L16.9051 89.4416ZM85.7147 87.6451L79.0911 89.4498L74.2408 84.4912L76.0101 77.7198L82.6376 75.907L87.4919 80.8655L85.7147 87.6451Z" fill="#3470AB"/>
</g>
</svg>
