<svg width="84" height="84" viewBox="0 0 84 84" fill="none" xmlns="http://www.w3.org/2000/svg">
<g id="Group 29">
<path id="Vector" d="M0 83.9267L5.90208 62.3768C2.26188 56.0704 0.346722 48.9153 0.349059 41.5859C0.358385 18.6553 19.0193 0 41.9505 0C53.0784 0.00541787 63.5229 4.33599 71.3784 12.1969C79.2314 20.0577 83.5558 30.5063 83.5518 41.6194C83.5417 64.5483 64.8778 83.2067 41.9505 83.2067C41.9488 83.2067 41.9521 83.2067 41.9505 83.2067H41.9325C34.9707 83.204 28.1297 81.4574 22.0533 78.1438L0 83.9267Z" fill="white"/>
<path id="Vector_2" d="M41.9636 7.02344C22.8909 7.02344 7.38006 22.5285 7.37305 41.5866C7.37022 48.1176 9.19792 54.4786 12.6589 59.9825L13.4818 61.29L9.98779 74.0448L23.0747 70.6133L24.3384 71.3621C29.646 74.5123 35.7312 76.178 41.9371 76.1811H41.9502C61.0084 76.1811 76.519 60.6744 76.5269 41.6147C76.5302 32.3787 72.9375 23.6933 66.4089 17.1601C59.8804 10.6269 51.1998 7.02735 41.9636 7.02344Z" fill="url(#paint0_linear_237_6778)"/>
<path id="Vector_3" fill-rule="evenodd" clip-rule="evenodd" d="M31.5537 24.1991C30.7748 22.4687 29.955 22.4335 29.2147 22.4031C28.6086 22.3775 27.9153 22.3789 27.2225 22.3789C26.529 22.3789 25.4032 22.6393 24.4512 23.6794C23.4981 24.7196 20.8125 27.2339 20.8125 32.3482C20.8125 37.4627 24.5376 42.4041 25.0564 43.0983C25.5761 43.7917 32.2473 54.622 42.8134 58.7882C51.5936 62.2507 53.3803 61.5619 55.2869 61.389C57.1926 61.2159 61.4368 58.8747 62.3024 56.4476C63.1688 54.0205 63.1688 51.9408 62.9093 51.5062C62.649 51.0721 61.9564 50.8128 60.9163 50.2929C59.8768 49.7733 54.7664 47.2583 53.8135 46.9115C52.8606 46.5647 52.1679 46.3919 51.4745 47.432C50.7818 48.4722 48.791 50.8128 48.1841 51.5062C47.578 52.2003 46.9717 52.2868 45.9315 51.7671C44.8922 51.246 41.5441 50.1496 37.5727 46.6084C34.4827 43.8533 32.3968 40.4508 31.7899 39.4105C31.1838 38.3703 31.7252 37.8078 32.2465 37.2896C32.7132 36.8237 33.2858 36.0758 33.8063 35.4689C34.3245 34.8619 34.4982 34.4287 34.8442 33.736C35.1909 33.0418 35.0179 32.4349 34.7577 31.915C34.4982 31.3953 32.4779 26.2546 31.5537 24.1991Z" fill="white"/>
</g>
<defs>
<linearGradient id="paint0_linear_237_6778" x1="41.246" y1="11.1736" x2="41.5968" y2="70.2729" gradientUnits="userSpaceOnUse">
<stop stop-color="#57D163"/>
<stop offset="1" stop-color="#23B33A"/>
</linearGradient>
</defs>
</svg>
