<svg width="24" height="24" viewBox="0 0 24 24" fill="none" xmlns="http://www.w3.org/2000/svg">
<g id="Iconsax/Bulk/bag">
<path id="Vector" opacity="0.4" d="M19.24 5.5826H18.84L15.46 2.2026C15.328 2.07276 15.1502 2 14.965 2C14.7798 2 14.602 2.07276 14.47 2.2026C14.2 2.4726 14.2 2.9126 14.47 3.1926L16.86 5.5826H7.14L9.53 3.1926C9.8 2.9226 9.8 2.4826 9.53 2.2026C9.39796 2.07276 9.22019 2 9.035 2C8.84981 2 8.67204 2.07276 8.54 2.2026L5.17 5.5826H4.77C3.87 5.5826 2 5.5826 2 8.1426C2 9.1126 2.2 9.7526 2.62 10.1726C2.86 10.4226 3.15 10.5526 3.46 10.6226C3.75 10.6926 4.06 10.7026 4.36 10.7026H19.64C19.95 10.7026 20.24 10.6826 20.52 10.6226C21.36 10.4226 22 9.8226 22 8.1426C22 5.5826 20.13 5.5826 19.24 5.5826Z" fill="white"/>
<path id="Vector_2" d="M19.65 10.7011H4.35996C4.05996 10.7011 3.74996 10.6911 3.45996 10.6211L4.71996 18.3011C4.99996 20.0211 5.74996 22.0011 9.07996 22.0011H14.69C18.06 22.0011 18.66 20.3111 19.02 18.4211L20.53 10.6211C20.25 10.6811 19.95 10.7011 19.65 10.7011ZM10.61 17.1611C10.61 17.5511 10.3 17.8611 9.90996 17.8611C9.51996 17.8611 9.20996 17.5511 9.20996 17.1611V13.8611C9.20996 13.4711 9.51996 13.1611 9.90996 13.1611C10.3 13.1611 10.61 13.4711 10.61 13.8611V17.1611ZM14.89 17.1611C14.89 17.5511 14.58 17.8611 14.19 17.8611C13.8 17.8611 13.49 17.5511 13.49 17.1611V13.8611C13.49 13.4711 13.8 13.1611 14.19 13.1611C14.58 13.1611 14.89 13.4711 14.89 13.8611V17.1611Z" fill="white"/>
</g>
</svg>
