<svg width="24" height="24" viewBox="0 0 24 24" fill="none" xmlns="http://www.w3.org/2000/svg">
<g id="icons8-delete (1) 1">
<path id="Vector" d="M10.8053 2C10.2883 2 9.7943 2.20431 9.4283 2.57031L8.99862 3H3.99862C3.86611 2.99813 3.73454 3.02261 3.61157 3.07202C3.48861 3.12143 3.37668 3.1948 3.28232 3.28784C3.18795 3.38088 3.11301 3.49176 3.06186 3.61401C3.01071 3.73627 2.98438 3.86747 2.98438 4C2.98438 4.13253 3.01071 4.26373 3.06186 4.38599C3.11301 4.50824 3.18795 4.61912 3.28232 4.71216C3.37668 4.8052 3.48861 4.87857 3.61157 4.92798C3.73454 4.97739 3.86611 5.00187 3.99862 5H19.9986C20.1311 5.00187 20.2627 4.97739 20.3857 4.92798C20.5086 4.87857 20.6206 4.8052 20.7149 4.71216C20.8093 4.61912 20.8842 4.50824 20.9354 4.38599C20.9865 4.26373 21.0129 4.13253 21.0129 4C21.0129 3.86747 20.9865 3.73627 20.9354 3.61401C20.8842 3.49176 20.8093 3.38088 20.7149 3.28784C20.6206 3.1948 20.5086 3.12143 20.3857 3.07202C20.2627 3.02261 20.1311 2.99813 19.9986 3H14.9986L14.5689 2.57031C14.2039 2.20431 13.709 2 13.192 2H10.8053ZM4.36385 7L5.8912 20.2637C6.0232 21.2537 6.87562 22 7.87362 22H16.1217C17.1197 22 17.973 21.2549 18.106 20.2559L19.6334 7H4.36385Z" fill="#E21414"/>
</g>
</svg>
