<svg width="24" height="28" viewBox="0 0 24 28" fill="none" xmlns="http://www.w3.org/2000/svg">
<path id="Vector" d="M22.8032 9.87665C21.894 8.87243 20.5233 8.2889 18.6235 8.08534V7.05399C18.6235 5.19483 17.8364 3.40352 16.4522 2.15504C15.7692 1.52882 14.9615 1.054 14.0822 0.761666C13.2029 0.469336 12.2717 0.3661 11.3497 0.458723C8.10633 0.770844 5.37866 3.90563 5.37866 7.29825V8.08534C3.47879 8.2889 2.10817 8.87243 1.19895 9.87665C-0.117391 11.3423 -0.076679 13.2964 0.0725965 14.6535L1.02253 22.2122C1.30751 24.8585 2.37958 27.5726 8.2149 27.5726H15.7872C21.6225 27.5726 22.6946 24.8585 22.9796 22.2258L23.9295 14.6399C24.0788 13.2964 24.1059 11.3423 22.8032 9.87665ZM11.5397 2.34502C12.1973 2.27896 12.8615 2.35161 13.4894 2.55828C14.1172 2.76495 14.6947 3.10104 15.1846 3.54484C15.6744 3.98863 16.0657 4.53026 16.3331 5.13471C16.6005 5.73917 16.7382 6.39301 16.7372 7.05399V8.00392H7.26496V7.29825C7.26496 4.88271 9.25982 2.56215 11.5397 2.34502ZM7.14283 15.5627H7.12926C6.38288 15.5627 5.77221 14.952 5.77221 14.2056C5.77221 13.4593 6.38288 12.8486 7.12926 12.8486C7.8892 12.8486 8.49988 13.4593 8.49988 14.2056C8.49988 14.952 7.8892 15.5627 7.14283 15.5627ZM16.6422 15.5627H16.6286C15.8822 15.5627 15.2716 14.952 15.2716 14.2056C15.2716 13.4593 15.8822 12.8486 16.6286 12.8486C17.3886 12.8486 17.9992 13.4593 17.9992 14.2056C17.9992 14.952 17.3886 15.5627 16.6422 15.5627Z" fill="white"/>
</svg>
