<svg width="19" height="20" viewBox="0 0 19 20" fill="none" xmlns="http://www.w3.org/2000/svg">
<path id="Vector" d="M11.1413 1.87197L12.8131 5.24323C13.041 5.71253 13.649 6.16267 14.1619 6.24886L17.1921 6.75647C19.1299 7.0821 19.5858 8.49956 18.1895 9.89787L15.8337 12.2731C15.4348 12.6753 15.2163 13.4511 15.3398 14.0066L16.0142 16.9469C16.5462 19.2742 15.3208 20.1745 13.2785 18.9581L10.4383 17.2629C9.92539 16.9564 9.07998 16.9564 8.55754 17.2629L5.71735 18.9581C3.68458 20.1745 2.44972 19.2646 2.98166 16.9469L3.65608 14.0066C3.77957 13.4511 3.56109 12.6753 3.16214 12.2731L0.806397 9.89787C-0.58045 8.49956 -0.133999 7.0821 1.80379 6.75647L4.83395 6.24886C5.3374 6.16267 5.94533 5.71253 6.1733 5.24323L7.84512 1.87197C8.75702 0.0426768 10.2389 0.0426768 11.1413 1.87197Z" fill="#FFD600"/>
</svg>
