<svg width="20" height="28" viewBox="0 0 20 28" fill="none" xmlns="http://www.w3.org/2000/svg">
<path id="Vector" d="M10 0C6.27841 0 3.25284 2.98215 3.25284 6.65033C3.25284 10.2485 6.10795 13.1607 9.82955 13.2867C9.94318 13.2727 10.0568 13.2727 10.142 13.2867H10.2415C11.9877 13.2292 13.6429 12.5047 14.8569 11.2662C16.071 10.0278 16.7489 8.37247 16.7472 6.65033C16.7472 2.98215 13.7216 0 10 0ZM17.2159 17.0095C13.2528 14.4053 6.78977 14.4053 2.7983 17.0095C0.994318 18.1995 0 19.8096 0 21.5317C0 23.2538 0.994318 24.8498 2.78409 26.0259C4.77273 27.342 7.38636 28 10 28C12.6136 28 15.2273 27.342 17.2159 26.0259C19.0057 24.8358 20 23.2398 20 21.5037C19.9858 19.7816 19.0057 18.1855 17.2159 17.0095Z" fill="#FDFDFD"/>
</svg>
