<svg width="96" height="96" viewBox="0 0 96 96" fill="none" xmlns="http://www.w3.org/2000/svg">
<path id="Vector" d="M85.2003 10.5884L53.9393 0.752052C50.6996 -0.250684 45.4136 -0.250684 42.1738 0.752052L10.9129 10.5884C4.88807 12.4984 0 18.4193 0 23.815V62.4919C0 66.3596 3.01242 71.4688 6.70689 73.7608L37.9678 93.3857C43.4811 96.8714 52.5184 96.8714 58.0317 93.3857L89.2926 73.7608C92.9871 71.421 95.9995 66.3596 95.9995 62.4919V23.815C96.0564 18.4193 91.1683 12.4984 85.2003 10.5884ZM67.8078 37.328L43.3674 57.8602C42.5149 58.5765 41.435 58.9107 40.355 58.9107C39.2751 58.9107 38.1952 58.5765 37.3426 57.8602L28.2485 50.1248C27.4557 49.4509 27.0111 48.5416 27.0111 47.5941C27.0111 46.6466 27.4557 45.7373 28.2485 45.0634C29.8968 43.6787 32.6251 43.6787 34.2734 45.0634L40.4119 50.2203L61.8398 32.2188C63.4881 30.8341 66.2163 30.8341 67.8647 32.2188C69.513 33.6036 69.513 35.9433 67.8078 37.328Z" fill="#3470AB"/>
</svg>
